# xmcd
#
# Track frame offsets: 
#        150
#        17972
#        34790
#        54610
#        70980
#        90354
#        112743
#        127555
#        150692
#        174739
#        186759
#        209023
#        237401
#        249119
#        271262
#
# Disc length: 3767 seconds
#
# Revision: 1
# Processed by: cddbd v1.5.2PL0 Copyright (c) Steve Scherf et al.
# Submitted via: ExactAudioCopy v1.3
#
DISCID=c20eb50f
DTITLE=Various Artist - Soul Bag Sampler, Mar 2009
DYEAR=2009
DGENRE=Blues
TTITLE0=Marvin Sease - My dog won't bark
TTITLE1=Cedric Burnside and Lightnin' Malcolm - R.L. Burnside
TTITLE2=Freddie Hughes - I know it's hard but it's fair
TTITLE3=Alice Russell - Two steps
TTITLE4=Sandra Nkaké - A new shore
TTITLE5=Brother Tyrone - If you ain't cheating
TTITLE6=John Lee Hooker jr - One eye open
TTITLE7=Earl Gaines - Let the past be the past
TTITLE8=The Bruce Katz Band - Marshall County
TTITLE9=Brother and Sister Walker - I can see so much
TTITLE10=Doris Allen - A shell of a woman
TTITLE11=Joe Louis Walker - It's a shame
TTITLE12=Drew Davies Rhythm Combo - Who's takin' care
TTITLE13=Chris James and Patrick Rynn - I'd like to write a letter
TTITLE14=Rev. Utah Smith - Two wings
EXTD=soul bag #193, décembre 2008
EXTT0=
EXTT1=
EXTT2=
EXTT3=
EXTT4=
EXTT5=
EXTT6=
EXTT7=
EXTT8=
EXTT9=
EXTT10=
EXTT11=
EXTT12=
EXTT13=
EXTT14=
PLAYORDER=
